<svg xmlns="http://www.w3.org/2000/svg" version="1.1" xmlns:xlink="http://www.w3.org/1999/xlink" xmlns:svgjs="http://svgjs.dev/svgjs" width="1440" height="560" preserveAspectRatio="none" viewBox="0 0 1440 560"><g mask="url(&quot;#SvgjsMask1003&quot;)" fill="none"><rect width="1440" height="560" x="0" y="0" fill="rgba(255, 122, 113, 1)"></rect><path d="M0,474.243C91.063,482.61,184.158,455.597,259.305,403.487C333.127,352.295,378.118,271.371,412.339,188.309C445.58,107.626,461.892,21.701,452.337,-65.036C442.56,-153.794,410.461,-237.878,357.474,-309.753C301.44,-385.761,231.752,-454.47,142.501,-485.314C51.141,-516.887,-55.567,-526.303,-141.594,-482.225C-224.278,-439.86,-250.964,-338.611,-299.012,-259.095C-338.593,-193.591,-382.357,-132.117,-398.371,-57.277C-415.224,21.486,-423.011,104.722,-392.838,179.403C-362.022,255.676,-296.184,309.115,-230.391,358.495C-160.232,411.152,-87.353,466.217,0,474.243" fill="#ff3527"></path><path d="M1440 1019.566C1525.251 1011.636 1559.436 903.673 1627.403 851.605 1687.7350000000001 805.386 1774.814 795.617 1815.843 731.642 1858.79 664.677 1876.541 576.518 1852.453 500.698 1829.1779999999999 427.438 1753.367 387.90999999999997 1691.953 341.682 1642.036 304.108 1583.319 287.896 1528.919 257.169 1454.348 215.048 1397.456 113.11900000000003 1313.055 127.66399999999999 1231.2649999999999 141.75900000000001 1210.289 251.81400000000002 1163.241 320.187 1121.902 380.26300000000003 1064.449 432.33 1053.77 504.469 1043.0729999999999 576.728 1074.82 646.468 1105.097 712.9449999999999 1135.401 779.481 1174.84 839.317 1228.7649999999999 888.688 1291.122 945.779 1355.819 1027.397 1440 1019.566" fill="#ffbfbb"></path></g><defs><mask id="SvgjsMask1003"><rect width="1440" height="560" fill="#ffffff"></rect></mask></defs></svg>